<mxfile host="Electron" agent="Mozilla/5.0 (Windows NT 10.0; Win64; x64) AppleWebKit/537.36 (KHTML, like Gecko) draw.io/27.0.9 Chrome/134.0.6998.205 Electron/35.4.0 Safari/537.36" version="27.0.9">
  <diagram name="Page-1" id="HGlnjLo4u-Pq4rYtGh30">
    <mxGraphModel dx="1892" dy="634" grid="1" gridSize="10" guides="1" tooltips="1" connect="1" arrows="1" fold="1" page="1" pageScale="1" pageWidth="850" pageHeight="1100" math="0" shadow="0">
      <root>
        <mxCell id="0" />
        <mxCell id="1" parent="0" />
        <mxCell id="7LJalrW5Rz1_ueMuxdux-1" value="&lt;b&gt;&lt;font style=&quot;font-size: 24px;&quot;&gt;INTEGERATION MODEL&lt;/font&gt;&lt;/b&gt;" style="text;html=1;align=center;verticalAlign=middle;resizable=0;points=[];autosize=1;strokeColor=none;fillColor=none;" vertex="1" parent="1">
          <mxGeometry x="-50" y="33" width="300" height="40" as="geometry" />
        </mxCell>
        <mxCell id="7LJalrW5Rz1_ueMuxdux-2" value="crm_cust_info" style="swimlane;fontStyle=0;childLayout=stackLayout;horizontal=1;startSize=30;horizontalStack=0;resizeParent=1;resizeParentMax=0;resizeLast=0;collapsible=1;marginBottom=0;whiteSpace=wrap;html=1;rounded=1;fillColor=#dae8fc;strokeColor=#6c8ebf;fontSize=16;" vertex="1" parent="1">
          <mxGeometry x="290" y="410" width="180" height="110" as="geometry" />
        </mxCell>
        <mxCell id="7LJalrW5Rz1_ueMuxdux-3" value="cst_id" style="text;strokeColor=none;fillColor=none;align=left;verticalAlign=middle;spacingLeft=4;spacingRight=4;overflow=hidden;points=[[0,0.5],[1,0.5]];portConstraint=eastwest;rotatable=0;whiteSpace=wrap;html=1;fontSize=16;" vertex="1" parent="7LJalrW5Rz1_ueMuxdux-2">
          <mxGeometry y="30" width="180" height="40" as="geometry" />
        </mxCell>
        <mxCell id="7LJalrW5Rz1_ueMuxdux-23" value="cst_key" style="text;strokeColor=none;fillColor=none;align=left;verticalAlign=middle;spacingLeft=4;spacingRight=4;overflow=hidden;points=[[0,0.5],[1,0.5]];portConstraint=eastwest;rotatable=0;whiteSpace=wrap;html=1;fontSize=16;" vertex="1" parent="7LJalrW5Rz1_ueMuxdux-2">
          <mxGeometry y="70" width="180" height="40" as="geometry" />
        </mxCell>
        <mxCell id="7LJalrW5Rz1_ueMuxdux-6" value="&lt;b&gt;&lt;font style=&quot;font-size: 13px;&quot;&gt;customer infromation&lt;/font&gt;&lt;/b&gt;" style="text;html=1;align=center;verticalAlign=middle;whiteSpace=wrap;rounded=0;" vertex="1" parent="1">
          <mxGeometry x="300" y="380" width="150" height="30" as="geometry" />
        </mxCell>
        <mxCell id="7LJalrW5Rz1_ueMuxdux-7" value="crm_prd_info" style="swimlane;fontStyle=0;childLayout=stackLayout;horizontal=1;startSize=30;horizontalStack=0;resizeParent=1;resizeParentMax=0;resizeLast=0;collapsible=1;marginBottom=0;whiteSpace=wrap;html=1;rounded=1;fillColor=#dae8fc;strokeColor=#6c8ebf;fontSize=16;" vertex="1" parent="1">
          <mxGeometry x="290" y="270" width="180" height="70" as="geometry" />
        </mxCell>
        <mxCell id="7LJalrW5Rz1_ueMuxdux-8" value="prd_key" style="text;strokeColor=none;fillColor=none;align=left;verticalAlign=middle;spacingLeft=4;spacingRight=4;overflow=hidden;points=[[0,0.5],[1,0.5]];portConstraint=eastwest;rotatable=0;whiteSpace=wrap;html=1;fontSize=16;" vertex="1" parent="7LJalrW5Rz1_ueMuxdux-7">
          <mxGeometry y="30" width="180" height="40" as="geometry" />
        </mxCell>
        <mxCell id="7LJalrW5Rz1_ueMuxdux-9" value="&lt;b&gt;&lt;font style=&quot;font-size: 13px;&quot;&gt;current and history&amp;nbsp; product information&lt;/font&gt;&lt;/b&gt;" style="text;html=1;align=center;verticalAlign=middle;whiteSpace=wrap;rounded=0;" vertex="1" parent="1">
          <mxGeometry x="270" y="240" width="210" height="30" as="geometry" />
        </mxCell>
        <mxCell id="7LJalrW5Rz1_ueMuxdux-10" value="crm_sales_details" style="swimlane;fontStyle=0;childLayout=stackLayout;horizontal=1;startSize=30;horizontalStack=0;resizeParent=1;resizeParentMax=0;resizeLast=0;collapsible=1;marginBottom=0;whiteSpace=wrap;html=1;rounded=1;fillColor=#dae8fc;strokeColor=#6c8ebf;fontSize=16;" vertex="1" parent="1">
          <mxGeometry x="-50" y="290" width="180" height="110" as="geometry" />
        </mxCell>
        <mxCell id="7LJalrW5Rz1_ueMuxdux-11" value="prd_key" style="text;strokeColor=none;fillColor=none;align=left;verticalAlign=middle;spacingLeft=4;spacingRight=4;overflow=hidden;points=[[0,0.5],[1,0.5]];portConstraint=eastwest;rotatable=0;whiteSpace=wrap;html=1;fontSize=16;" vertex="1" parent="7LJalrW5Rz1_ueMuxdux-10">
          <mxGeometry y="30" width="180" height="40" as="geometry" />
        </mxCell>
        <mxCell id="7LJalrW5Rz1_ueMuxdux-18" value="cst_id" style="text;strokeColor=none;fillColor=none;align=left;verticalAlign=middle;spacingLeft=4;spacingRight=4;overflow=hidden;points=[[0,0.5],[1,0.5]];portConstraint=eastwest;rotatable=0;whiteSpace=wrap;html=1;fontSize=16;" vertex="1" parent="7LJalrW5Rz1_ueMuxdux-10">
          <mxGeometry y="70" width="180" height="40" as="geometry" />
        </mxCell>
        <mxCell id="7LJalrW5Rz1_ueMuxdux-12" value="&lt;span style=&quot;font-size: 13px;&quot;&gt;&lt;b&gt;Transactional Records about sales and orders&lt;/b&gt;&lt;/span&gt;" style="text;html=1;align=center;verticalAlign=middle;whiteSpace=wrap;rounded=0;" vertex="1" parent="1">
          <mxGeometry x="-60" y="260" width="210" height="30" as="geometry" />
        </mxCell>
        <mxCell id="7LJalrW5Rz1_ueMuxdux-19" style="edgeStyle=orthogonalEdgeStyle;rounded=0;orthogonalLoop=1;jettySize=auto;html=1;entryX=-0.011;entryY=0.28;entryDx=0;entryDy=0;entryPerimeter=0;" edge="1" parent="1" source="7LJalrW5Rz1_ueMuxdux-11" target="7LJalrW5Rz1_ueMuxdux-8">
          <mxGeometry relative="1" as="geometry" />
        </mxCell>
        <mxCell id="7LJalrW5Rz1_ueMuxdux-20" style="edgeStyle=orthogonalEdgeStyle;rounded=0;orthogonalLoop=1;jettySize=auto;html=1;entryX=-0.038;entryY=0.56;entryDx=0;entryDy=0;entryPerimeter=0;" edge="1" parent="1" source="7LJalrW5Rz1_ueMuxdux-18" target="7LJalrW5Rz1_ueMuxdux-3">
          <mxGeometry relative="1" as="geometry" />
        </mxCell>
        <mxCell id="7LJalrW5Rz1_ueMuxdux-21" value="erp_cust_az12" style="swimlane;fontStyle=0;childLayout=stackLayout;horizontal=1;startSize=30;horizontalStack=0;resizeParent=1;resizeParentMax=0;resizeLast=0;collapsible=1;marginBottom=0;whiteSpace=wrap;html=1;rounded=1;fillColor=#d5e8d4;strokeColor=#82b366;fontSize=16;" vertex="1" parent="1">
          <mxGeometry x="620" y="460" width="180" height="70" as="geometry" />
        </mxCell>
        <mxCell id="7LJalrW5Rz1_ueMuxdux-22" value="CID" style="text;align=left;verticalAlign=middle;spacingLeft=4;spacingRight=4;overflow=hidden;points=[[0,0.5],[1,0.5]];portConstraint=eastwest;rotatable=0;whiteSpace=wrap;html=1;fontSize=16;" vertex="1" parent="7LJalrW5Rz1_ueMuxdux-21">
          <mxGeometry y="30" width="180" height="40" as="geometry" />
        </mxCell>
        <mxCell id="7LJalrW5Rz1_ueMuxdux-25" style="edgeStyle=orthogonalEdgeStyle;rounded=0;orthogonalLoop=1;jettySize=auto;html=1;entryX=1;entryY=0.5;entryDx=0;entryDy=0;" edge="1" parent="1" source="7LJalrW5Rz1_ueMuxdux-22" target="7LJalrW5Rz1_ueMuxdux-23">
          <mxGeometry relative="1" as="geometry" />
        </mxCell>
        <mxCell id="7LJalrW5Rz1_ueMuxdux-26" value="&lt;b&gt;&lt;font style=&quot;font-size: 15px;&quot;&gt;extra customer info&lt;/font&gt;&lt;/b&gt;" style="text;html=1;align=center;verticalAlign=middle;resizable=0;points=[];autosize=1;strokeColor=none;fillColor=none;" vertex="1" parent="1">
          <mxGeometry x="620" y="430" width="160" height="30" as="geometry" />
        </mxCell>
        <mxCell id="7LJalrW5Rz1_ueMuxdux-27" value="erp_loc_a101" style="swimlane;fontStyle=0;childLayout=stackLayout;horizontal=1;startSize=30;horizontalStack=0;resizeParent=1;resizeParentMax=0;resizeLast=0;collapsible=1;marginBottom=0;whiteSpace=wrap;html=1;rounded=1;fillColor=#d5e8d4;strokeColor=#82b366;fontSize=16;" vertex="1" parent="1">
          <mxGeometry x="620" y="340" width="180" height="70" as="geometry" />
        </mxCell>
        <mxCell id="7LJalrW5Rz1_ueMuxdux-28" value="CID" style="text;align=left;verticalAlign=middle;spacingLeft=4;spacingRight=4;overflow=hidden;points=[[0,0.5],[1,0.5]];portConstraint=eastwest;rotatable=0;whiteSpace=wrap;html=1;fontSize=16;" vertex="1" parent="7LJalrW5Rz1_ueMuxdux-27">
          <mxGeometry y="30" width="180" height="40" as="geometry" />
        </mxCell>
        <mxCell id="7LJalrW5Rz1_ueMuxdux-29" value="&lt;span style=&quot;font-size: 15px;&quot;&gt;&lt;b&gt;customer location info&lt;/b&gt;&lt;/span&gt;" style="text;html=1;align=center;verticalAlign=middle;resizable=0;points=[];autosize=1;strokeColor=none;fillColor=none;" vertex="1" parent="1">
          <mxGeometry x="620" y="310" width="180" height="30" as="geometry" />
        </mxCell>
        <mxCell id="7LJalrW5Rz1_ueMuxdux-30" style="edgeStyle=orthogonalEdgeStyle;rounded=0;orthogonalLoop=1;jettySize=auto;html=1;entryX=1.024;entryY=0.74;entryDx=0;entryDy=0;entryPerimeter=0;" edge="1" parent="1" source="7LJalrW5Rz1_ueMuxdux-28" target="7LJalrW5Rz1_ueMuxdux-23">
          <mxGeometry relative="1" as="geometry" />
        </mxCell>
        <mxCell id="7LJalrW5Rz1_ueMuxdux-31" value="erp_px_cat_g1v2" style="swimlane;fontStyle=0;childLayout=stackLayout;horizontal=1;startSize=30;horizontalStack=0;resizeParent=1;resizeParentMax=0;resizeLast=0;collapsible=1;marginBottom=0;whiteSpace=wrap;html=1;rounded=1;fillColor=#d5e8d4;strokeColor=#82b366;fontSize=16;" vertex="1" parent="1">
          <mxGeometry x="620" y="200" width="180" height="70" as="geometry" />
        </mxCell>
        <mxCell id="7LJalrW5Rz1_ueMuxdux-32" value="ID" style="text;align=left;verticalAlign=middle;spacingLeft=4;spacingRight=4;overflow=hidden;points=[[0,0.5],[1,0.5]];portConstraint=eastwest;rotatable=0;whiteSpace=wrap;html=1;fontSize=16;" vertex="1" parent="7LJalrW5Rz1_ueMuxdux-31">
          <mxGeometry y="30" width="180" height="40" as="geometry" />
        </mxCell>
        <mxCell id="7LJalrW5Rz1_ueMuxdux-33" value="&lt;span style=&quot;font-size: 15px;&quot;&gt;&lt;b&gt;product category info&lt;/b&gt;&lt;/span&gt;" style="text;html=1;align=center;verticalAlign=middle;resizable=0;points=[];autosize=1;strokeColor=none;fillColor=none;" vertex="1" parent="1">
          <mxGeometry x="620" y="170" width="180" height="30" as="geometry" />
        </mxCell>
        <mxCell id="7LJalrW5Rz1_ueMuxdux-37" value="&lt;font style=&quot;font-size: 17px;&quot;&gt;&lt;b&gt;CRM&lt;/b&gt;&lt;/font&gt;" style="rounded=1;whiteSpace=wrap;html=1;fillColor=#dae8fc;strokeColor=#6c8ebf;" vertex="1" parent="1">
          <mxGeometry x="160" y="100" width="120" height="60" as="geometry" />
        </mxCell>
        <mxCell id="7LJalrW5Rz1_ueMuxdux-38" value="" style="rounded=1;whiteSpace=wrap;html=1;fillColor=none;" vertex="1" parent="1">
          <mxGeometry x="-80" y="160" width="600" height="410" as="geometry" />
        </mxCell>
        <mxCell id="7LJalrW5Rz1_ueMuxdux-43" style="edgeStyle=orthogonalEdgeStyle;rounded=0;orthogonalLoop=1;jettySize=auto;html=1;entryX=1;entryY=0.5;entryDx=0;entryDy=0;" edge="1" parent="1" source="7LJalrW5Rz1_ueMuxdux-32" target="7LJalrW5Rz1_ueMuxdux-8">
          <mxGeometry relative="1" as="geometry" />
        </mxCell>
        <mxCell id="7LJalrW5Rz1_ueMuxdux-44" value="" style="rounded=1;whiteSpace=wrap;html=1;fillColor=none;" vertex="1" parent="1">
          <mxGeometry x="565" y="160" width="250" height="410" as="geometry" />
        </mxCell>
        <mxCell id="7LJalrW5Rz1_ueMuxdux-45" value="&lt;font style=&quot;font-size: 16px;&quot;&gt;&lt;b&gt;ERP&lt;/b&gt;&lt;/font&gt;" style="rounded=1;whiteSpace=wrap;html=1;fillColor=#d5e8d4;strokeColor=#82b366;" vertex="1" parent="1">
          <mxGeometry x="630" y="100" width="120" height="60" as="geometry" />
        </mxCell>
        <mxCell id="7LJalrW5Rz1_ueMuxdux-46" value="&lt;font style=&quot;font-size: 16px;&quot;&gt;Product&lt;/font&gt;" style="text;html=1;strokeColor=#b85450;fillColor=#f8cecc;align=center;verticalAlign=middle;whiteSpace=wrap;overflow=hidden;rounded=1;" vertex="1" parent="1">
          <mxGeometry x="290" y="330" width="180" height="20" as="geometry" />
        </mxCell>
        <mxCell id="7LJalrW5Rz1_ueMuxdux-47" value="&lt;font style=&quot;font-size: 16px;&quot;&gt;Product&lt;/font&gt;" style="text;html=1;strokeColor=#b85450;fillColor=#f8cecc;align=center;verticalAlign=middle;whiteSpace=wrap;overflow=hidden;rounded=1;" vertex="1" parent="1">
          <mxGeometry x="620" y="260" width="180" height="20" as="geometry" />
        </mxCell>
        <mxCell id="7LJalrW5Rz1_ueMuxdux-49" value="&lt;span style=&quot;font-size: 16px;&quot;&gt;Customer&lt;/span&gt;" style="text;html=1;strokeColor=#d6b656;fillColor=#fff2cc;align=center;verticalAlign=middle;whiteSpace=wrap;overflow=hidden;rounded=1;" vertex="1" parent="1">
          <mxGeometry x="620" y="520" width="180" height="20" as="geometry" />
        </mxCell>
        <mxCell id="7LJalrW5Rz1_ueMuxdux-50" value="&lt;span style=&quot;font-size: 16px;&quot;&gt;Customer&lt;/span&gt;" style="text;html=1;strokeColor=#d6b656;fillColor=#fff2cc;align=center;verticalAlign=middle;whiteSpace=wrap;overflow=hidden;rounded=1;" vertex="1" parent="1">
          <mxGeometry x="290" y="510" width="180" height="20" as="geometry" />
        </mxCell>
        <mxCell id="7LJalrW5Rz1_ueMuxdux-51" value="&lt;span style=&quot;font-size: 16px;&quot;&gt;Customer&lt;/span&gt;" style="text;html=1;strokeColor=#d6b656;fillColor=#fff2cc;align=center;verticalAlign=middle;whiteSpace=wrap;overflow=hidden;rounded=1;" vertex="1" parent="1">
          <mxGeometry x="620" y="400" width="180" height="20" as="geometry" />
        </mxCell>
        <mxCell id="7LJalrW5Rz1_ueMuxdux-52" value="&lt;font style=&quot;font-size: 16px;&quot;&gt;Sales/Orders&lt;/font&gt;" style="text;html=1;strokeColor=#9673a6;fillColor=#e1d5e7;align=center;verticalAlign=middle;whiteSpace=wrap;overflow=hidden;rounded=1;" vertex="1" parent="1">
          <mxGeometry x="-50" y="390" width="180" height="20" as="geometry" />
        </mxCell>
      </root>
    </mxGraphModel>
  </diagram>
</mxfile>
